# File created by Blade
# Date/Time:  Fri Jan 16 19:49:56 2015
# Frame Rate: 120.000 fps
#------------------------------------------------------
:FULLY-SPECIFIED
:DEGREES
386
root 20.410337 34.988592 -11.332920 -113.920985 2.406823 -177.858600
Spine 67.804977 1.072336 -11.042810
Head -16.369967 4.442034 0.043344
LeftShoulder -20.524751 17.558050 10.288329
LeftArm -58.236003 11.261367 -103.094310
LeftForeArm 18.759922 -0.000000 -0.722987
LeftHand -1.457238 -0.000000 -42.896195
LeftHandThumb1 -26.253704 0.000000 33.147579
RightShoulder -24.239080 -49.431705 -5.755339
RightArm -21.771444 -26.796686 88.537614
RightForeArm -35.666008 0.000000 7.773679
RightHand 4.440250 -0.000000 48.836952
RightHandThumb1 -24.326973 -0.000000 -32.862282
LeftUpLeg -73.224096 7.151167 4.221126
LeftLeg -4.813964 -0.000000 0.000000
LeftFoot -5.328740 33.170572 -8.609252
LeftToeBase 27.401152 -0.000000 -0.000000
RightUpLeg -73.264701 -0.620851 -7.328581
RightLeg -4.466646 -0.000000 0.000000
RightFoot -7.859351 -18.199653 17.193219
RightToeBase 25.161837 -0.000000 -0.000000
387
root 20.410754 34.990122 -11.326970 -113.909434 2.394864 -177.816816
Spine 67.779835 1.056297 -11.074050
Head -16.438704 4.478058 -0.011776
LeftShoulder -20.501194 17.307938 10.247451
LeftArm -58.253866 11.327556 -103.242345
LeftForeArm 18.437689 -0.000000 -0.736825
LeftHand -1.423988 -0.000000 -42.993201
LeftHandThumb1 -26.253704 0.000000 33.147579
RightShoulder -24.224166 -49.318169 -5.764272
RightArm -21.642577 -26.779337 88.592263
RightForeArm -35.753638 -0.000000 7.776595
RightHand 4.511113 0.000000 48.814642
RightHandThumb1 -24.326973 -0.000000 -32.862282
LeftUpLeg -73.300804 7.221654 4.093017
LeftLeg -4.744712 -0.000000 0.000000
LeftFoot -5.376500 33.039419 -8.634696
LeftToeBase 27.468108 -0.000000 -0.000000
RightUpLeg -73.289756 -0.576318 -7.338636
RightLeg -4.406719 -0.000000 0.000000
RightFoot -8.039768 -18.088300 17.281368
RightToeBase 24.506364 -0.000000 -0.000000
388
root 20.409624 34.991831 -11.320988 -113.883395 2.373705 -177.788046
Spine 67.767527 1.022102 -11.094690
Head -16.525609 4.501068 -0.068431
LeftShoulder -20.517430 17.208403 10.158407
LeftArm -58.098421 11.338753 -103.179793
LeftForeArm 18.333640 -0.000000 -0.730017
LeftHand -1.418097 -0.000000 -43.074212
LeftHandThumb1 -26.253704 0.000000 33.147579
RightShoulder -24.258719 -49.244717 -5.734770
RightArm -21.475220 -26.825445 88.629204
RightForeArm -35.552528 -0.000000 7.826851
RightHand 4.416807 -0.000000 48.884221
RightHandThumb1 -24.326973 -0.000000 -32.862282
LeftUpLeg -73.395933 7.280993 3.939878
LeftLeg -4.682988 -0.000000 0.000000
LeftFoot -5.388160 32.901731 -8.628620
LeftToeBase 27.498388 -0.000000 -0.000000
RightUpLeg -73.321145 -0.546128 -7.355523
RightLeg -4.364879 -0.000000 0.000000
RightFoot -8.224512 -17.980320 17.407062
RightToeBase 23.959139 -0.000000 -0.000000
389
root 20.408315 34.993546 -11.315164 -113.827668 2.350012 -177.753461
Spine 67.745759 1.005940 -11.063139
Head -16.614267 4.463880 -0.123693
LeftShoulder -20.476023 17.058970 10.121655
LeftArm -57.985220 11.402894 -103.230559
LeftForeArm 18.049307 -0.000000 -0.783796
LeftHand -1.457987 -0.000000 -43.127435
LeftHandThumb1 -26.253704 0.000000 33.147579
RightShoulder -24.309660 -49.074744 -5.674951
RightArm -21.462662 -27.029030 88.767696
RightForeArm -35.292619 -0.000000 7.839803
RightHand 4.481418 0.000000 48.841693
RightHandThumb1 -24.326973 -0.000000 -32.862282
LeftUpLeg -73.511109 7.346127 3.784318
LeftLeg -4.638265 -0.000000 0.000000
LeftFoot -5.374923 32.779993 -8.570767
LeftToeBase 27.517497 -0.000000 -0.000000
RightUpLeg -73.380839 -0.515592 -7.359860
RightLeg -4.333337 -0.000000 0.000000
RightFoot -8.449600 -17.904115 17.557152
RightToeBase 23.996916 -0.000000 -0.000000
390
root 20.406905 34.994949 -11.310590 -113.774758 2.318257 -177.730394
Spine 67.752430 0.965788 -11.035608
Head -16.721313 4.445464 -0.211500
LeftShoulder -20.382507 16.847538 10.107934
LeftArm -57.971789 11.315552 -103.174144
LeftForeArm 17.956463 0.000000 -0.736822
LeftHand -1.452844 -0.000000 -43.109527
LeftHandThumb1 -26.253704 0.000000 33.147579
RightShoulder -24.384211 -48.959886 -5.603918
RightArm -21.387189 -27.115075 88.852446
RightForeArm -35.144320 -0.000000 7.846105
RightHand 4.456609 -0.000000 48.799132
RightHandThumb1 -24.326973 -0.000000 -32.862282
LeftUpLeg -73.627679 7.398392 3.626025
LeftLeg -4.586773 -0.000000 0.000000
LeftFoot -5.323066 32.620514 -8.453181
LeftToeBase 27.590481 -0.000000 -0.000000
RightUpLeg -73.432710 -0.506932 -7.320151
RightLeg -4.307139 -0.000000 0.000000
RightFoot -8.561729 -17.801138 17.518328
RightToeBase 23.706325 -0.000000 -0.000000
391
root 20.405258 34.995304 -11.305969 -113.706756 2.272311 -177.719600
Spine 67.770817 0.897153 -11.054951
Head -16.844650 4.465467 -0.263250
LeftShoulder -20.377065 16.649642 10.104507
LeftArm -57.938779 11.189271 -103.017875
LeftForeArm 18.136286 -0.000000 -0.675389
LeftHand -1.412363 -0.000000 -43.103519
LeftHandThumb1 -26.253704 0.000000 33.147579
RightShoulder -24.367974 -48.829273 -5.575408
RightArm -21.331463 -27.151887 88.903186
RightForeArm -34.947482 -0.000000 7.858052
RightHand 4.368775 -0.000000 48.770847
RightHandThumb1 -24.326973 -0.000000 -32.862282
LeftUpLeg -73.765959 7.428925 3.491432
LeftLeg -4.526229 -0.000000 0.000000
LeftFoot -5.308388 32.477870 -8.413788
LeftToeBase 27.544628 -0.000000 -0.000000
RightUpLeg -73.502075 -0.506928 -7.317438
RightLeg -4.279955 -0.000000 0.000000
RightFoot -8.629925 -17.769366 17.480437
RightToeBase 22.975444 -0.000000 -0.000000
392
root 20.403699 34.994740 -11.303428 -113.646425 2.226483 -177.704211
Spine 67.822092 0.829365 -11.095200
Head -16.979021 4.500232 -0.309603
LeftShoulder -20.365278 16.425088 10.156905
LeftArm -57.953060 11.167066 -103.121576
LeftForeArm 17.944463 -0.000000 -0.696615
LeftHand -1.508194 -0.000000 -43.012981
LeftHandThumb1 -26.253704 0.000000 33.147579
RightShoulder -24.309003 -48.700836 -5.575619
RightArm -21.281373 -27.190517 88.963207
RightForeArm -34.609594 -0.000000 7.829153
RightHand 4.316149 -0.000000 48.629775
RightHandThumb1 -24.326973 -0.000000 -32.862282
LeftUpLeg -73.880052 7.454006 3.408268
LeftLeg -4.481918 -0.000000 0.000000
LeftFoot -5.381010 32.376517 -8.510272
LeftToeBase 27.597845 -0.000000 -0.000000
RightUpLeg -73.554175 -0.505921 -7.296328
RightLeg -4.275420 -0.000000 0.000000
RightFoot -8.622950 -17.745669 17.468647
RightToeBase 22.437561 -0.000000 -0.000000
393
root 20.402291 34.994525 -11.299316 -113.555757 2.175451 -177.713656
Spine 67.867472 0.743646 -11.111169
Head -17.123941 4.507694 -0.354862
LeftShoulder -20.359482 16.357743 10.173093
LeftArm -57.827812 11.175127 -103.151484
LeftForeArm 18.072315 -0.000000 -0.667911
LeftHand -1.371010 -0.000000 -43.030236
LeftHandThumb1 -26.253704 0.000000 33.147579
RightShoulder -24.374291 -48.614094 -5.481649
RightArm -21.134773 -27.011052 88.874023
RightForeArm -34.851074 -0.000000 7.801612
RightHand 4.424012 -0.000000 48.654929
RightHandThumb1 -24.326973 -0.000000 -32.862282
LeftUpLeg -74.019543 7.449530 3.342583
LeftLeg -4.444832 -0.000000 0.000000
LeftFoot -5.306958 32.310520 -8.387415
LeftToeBase 27.569410 -0.000000 -0.000000
RightUpLeg -73.645685 -0.528089 -7.294277
RightLeg -4.253418 -0.000000 0.000000
RightFoot -8.640180 -17.770151 17.362738
RightToeBase 22.238414 -0.000000 -0.000000
394
root 20.400904 34.993290 -11.294680 -113.458438 2.129219 -177.717940
Spine 67.923027 0.683342 -11.111780
Head -17.256325 4.519830 -0.363483
LeftShoulder -20.295911 16.153296 10.270215
LeftArm -57.859152 11.189023 -103.308041
LeftForeArm 17.936468 0.000000 -0.677936
LeftHand -1.498038 0.000000 -42.995974
LeftHandThumb1 -26.253704 0.000000 33.147579
RightShoulder -24.416256 -48.520435 -5.395475
RightArm -21.059071 -26.838755 88.839860
RightForeArm -34.884382 -0.000000 7.793303
RightHand 4.327329 0.000000 48.648586
RightHandThumb1 -24.326973 -0.000000 -32.862282
LeftUpLeg -74.175580 7.447509 3.302289
LeftLeg -4.377864 -0.000000 0.000000
LeftFoot -5.292158 32.241019 -8.357154
LeftToeBase 27.522327 -0.000000 -0.000000
RightUpLeg -73.749348 -0.543378 -7.298921
RightLeg -4.229901 -0.000000 0.000000
RightFoot -8.612943 -17.809731 17.232592
RightToeBase 21.942165 -0.000000 -0.000000
395
root 20.399504 34.992245 -11.291056 -113.360354 2.085551 -177.720497
Spine 67.984552 0.658044 -11.081699
Head -17.341469 4.462047 -0.325076
LeftShoulder -20.190371 16.089341 10.368519
LeftArm -57.764565 11.254822 -103.499454
LeftForeArm 17.870237 -0.000000 -0.739844
LeftHand -1.418514 -0.000000 -42.997013
LeftHandThumb1 -26.253704 0.000000 33.147579
RightShoulder -24.435855 -48.421789 -5.320116
RightArm -21.079546 -26.726997 88.908387
RightForeArm -34.768324 -0.000000 7.782173
RightHand 4.234532 -0.000000 48.586358
RightHandThumb1 -24.326973 -0.000000 -32.862282
LeftUpLeg -74.327626 7.446713 3.272802
LeftLeg -4.314042 -0.000000 0.000000
LeftFoot -5.303525 32.190151 -8.352797
LeftToeBase 27.498023 -0.000000 -0.000000
RightUpLeg -73.843679 -0.543487 -7.352567
RightLeg -4.223879 -0.000000 0.000000
RightFoot -8.565688 -17.942257 17.055912
RightToeBase 21.885991 -0.000000 -0.000000
